<svg width="188" height="189" viewBox="0 0 188 189" fill="none" xmlns="http://www.w3.org/2000/svg">
<g clip-path="url(#clip0_110_25)">
<g clip-path="url(#clip1_110_25)">
<circle cx="3" cy="3.53799" r="3" fill="#FFB969"/>
<circle cx="29" cy="3.53799" r="3" fill="#FFB969"/>
<circle cx="55" cy="3.53799" r="3" fill="#FFB969"/>
<circle cx="81" cy="3.53799" r="3" fill="#FFB969"/>
<circle cx="107" cy="3.53799" r="3" fill="#FFB969"/>
<circle cx="133" cy="3.53799" r="3" fill="#FFB969"/>
<circle cx="159" cy="3.53799" r="3" fill="#FFB969"/>
<circle cx="185" cy="3.53799" r="3" fill="#FFB969"/>
</g>
<g clip-path="url(#clip2_110_25)">
<circle cx="3" cy="29.538" r="3" fill="#FFB969"/>
<circle cx="29" cy="29.538" r="3" fill="#FFB969"/>
<circle cx="55" cy="29.538" r="3" fill="#FFB969"/>
<circle cx="81" cy="29.538" r="3" fill="#FFB969"/>
<circle cx="107" cy="29.538" r="3" fill="#FFB969"/>
<circle cx="133" cy="29.538" r="3" fill="#FFB969"/>
<circle cx="159" cy="29.538" r="3" fill="#FFB969"/>
<circle cx="185" cy="29.538" r="3" fill="#FFB969"/>
</g>
<g clip-path="url(#clip3_110_25)">
<circle cx="3" cy="55.538" r="3" fill="#FFB969"/>
<circle cx="29" cy="55.538" r="3" fill="#FFB969"/>
<circle cx="55" cy="55.538" r="3" fill="#FFB969"/>
<circle cx="81" cy="55.538" r="3" fill="#FFB969"/>
<circle cx="107" cy="55.538" r="3" fill="#FFB969"/>
<circle cx="133" cy="55.538" r="3" fill="#FFB969"/>
<circle cx="159" cy="55.538" r="3" fill="#FFB969"/>
<circle cx="185" cy="55.538" r="3" fill="#FFB969"/>
</g>
<g clip-path="url(#clip4_110_25)">
<circle cx="3" cy="81.538" r="3" fill="#FFB969"/>
<circle cx="29" cy="81.538" r="3" fill="#FFB969"/>
<circle cx="55" cy="81.538" r="3" fill="#FFB969"/>
<circle cx="81" cy="81.538" r="3" fill="#FFB969"/>
<circle cx="107" cy="81.538" r="3" fill="#FFB969"/>
<circle cx="133" cy="81.538" r="3" fill="#FFB969"/>
<circle cx="159" cy="81.538" r="3" fill="#FFB969"/>
<circle cx="185" cy="81.538" r="3" fill="#FFB969"/>
</g>
<g clip-path="url(#clip5_110_25)">
<circle cx="3" cy="107.538" r="3" fill="#FFB969"/>
<circle cx="29" cy="107.538" r="3" fill="#FFB969"/>
<circle cx="55" cy="107.538" r="3" fill="#FFB969"/>
<circle cx="81" cy="107.538" r="3" fill="#FFB969"/>
<circle cx="107" cy="107.538" r="3" fill="#FFB969"/>
<circle cx="133" cy="107.538" r="3" fill="#FFB969"/>
<circle cx="159" cy="107.538" r="3" fill="#FFB969"/>
<circle cx="185" cy="107.538" r="3" fill="#FFB969"/>
</g>
<g clip-path="url(#clip6_110_25)">
<circle cx="3" cy="133.538" r="3" fill="#FFB969"/>
<circle cx="29" cy="133.538" r="3" fill="#FFB969"/>
<circle cx="55" cy="133.538" r="3" fill="#FFB969"/>
<circle cx="81" cy="133.538" r="3" fill="#FFB969"/>
<circle cx="107" cy="133.538" r="3" fill="#FFB969"/>
<circle cx="133" cy="133.538" r="3" fill="#FFB969"/>
<circle cx="159" cy="133.538" r="3" fill="#FFB969"/>
<circle cx="185" cy="133.538" r="3" fill="#FFB969"/>
</g>
<g clip-path="url(#clip7_110_25)">
<circle cx="3" cy="159.538" r="3" fill="#FFB969"/>
<circle cx="29" cy="159.538" r="3" fill="#FFB969"/>
<circle cx="55" cy="159.538" r="3" fill="#FFB969"/>
<circle cx="81" cy="159.538" r="3" fill="#FFB969"/>
<circle cx="107" cy="159.538" r="3" fill="#FFB969"/>
<circle cx="133" cy="159.538" r="3" fill="#FFB969"/>
<circle cx="159" cy="159.538" r="3" fill="#FFB969"/>
<circle cx="185" cy="159.538" r="3" fill="#FFB969"/>
</g>
<g clip-path="url(#clip8_110_25)">
<circle cx="3" cy="185.538" r="3" fill="#FFB969"/>
<circle cx="29" cy="185.538" r="3" fill="#FFB969"/>
<circle cx="55" cy="185.538" r="3" fill="#FFB969"/>
<circle cx="81" cy="185.538" r="3" fill="#FFB969"/>
<circle cx="107" cy="185.538" r="3" fill="#FFB969"/>
<circle cx="133" cy="185.538" r="3" fill="#FFB969"/>
<circle cx="159" cy="185.538" r="3" fill="#FFB969"/>
<circle cx="185" cy="185.538" r="3" fill="#FFB969"/>
</g>
</g>
<defs>
<clipPath id="clip0_110_25">
<rect width="188" height="188" fill="white" transform="translate(0 0.537994)"/>
</clipPath>
<clipPath id="clip1_110_25">
<rect width="200" height="26" fill="white" transform="translate(0 0.537994)"/>
</clipPath>
<clipPath id="clip2_110_25">
<rect width="200" height="26" fill="white" transform="translate(0 26.538)"/>
</clipPath>
<clipPath id="clip3_110_25">
<rect width="200" height="26" fill="white" transform="translate(0 52.538)"/>
</clipPath>
<clipPath id="clip4_110_25">
<rect width="200" height="26" fill="white" transform="translate(0 78.538)"/>
</clipPath>
<clipPath id="clip5_110_25">
<rect width="200" height="26" fill="white" transform="translate(0 104.538)"/>
</clipPath>
<clipPath id="clip6_110_25">
<rect width="200" height="26" fill="white" transform="translate(0 130.538)"/>
</clipPath>
<clipPath id="clip7_110_25">
<rect width="200" height="26" fill="white" transform="translate(0 156.538)"/>
</clipPath>
<clipPath id="clip8_110_25">
<rect width="200" height="26" fill="white" transform="translate(0 182.538)"/>
</clipPath>
</defs>
</svg>
