<svg width="36" height="35" viewBox="0 0 36 35" fill="none" xmlns="http://www.w3.org/2000/svg">
<g clip-path="url(#clip0_116_382)">
<path d="M18 0C27.6688 0 35.5 7.83125 35.5 17.5C35.4991 21.1667 34.3483 24.7408 32.2096 27.7192C30.071 30.6976 27.0522 32.9303 23.5781 34.1031C22.7031 34.2781 22.375 33.7313 22.375 33.2719C22.375 32.6813 22.3969 30.8 22.3969 28.4594C22.3969 26.8188 21.85 25.7687 21.2156 25.2219C25.1094 24.7844 29.2 23.2969 29.2 16.5812C29.2 14.6562 28.5219 13.1031 27.4063 11.8781C27.5813 11.4406 28.1938 9.64688 27.2313 7.24062C27.2313 7.24062 25.7656 6.75938 22.4188 9.03438C21.0188 8.64062 19.5313 8.44375 18.0438 8.44375C16.5563 8.44375 15.0688 8.64062 13.6688 9.03438C10.3219 6.78125 8.85625 7.24062 8.85625 7.24062C7.89375 9.64688 8.50625 11.4406 8.68125 11.8781C7.56563 13.1031 6.8875 14.6781 6.8875 16.5812C6.8875 23.275 10.9563 24.7844 14.85 25.2219C14.3469 25.6594 13.8875 26.425 13.7344 27.5625C12.7281 28.0219 10.2125 28.7656 8.6375 26.1187C8.30938 25.5938 7.325 24.3031 5.94688 24.325C4.48125 24.3469 5.35625 25.1562 5.96875 25.4844C6.7125 25.9 7.56563 27.4531 7.7625 27.9562C8.1125 28.9406 9.25 30.8219 13.6469 30.0125C13.6469 31.4781 13.6688 32.8563 13.6688 33.2719C13.6688 33.7313 13.3406 34.2562 12.4656 34.1031C8.98015 32.943 5.94848 30.7147 3.8007 27.7345C1.65291 24.7543 0.498074 21.1735 0.500002 17.5C0.500002 7.83125 8.33125 0 18 0Z" fill="#FFB969"/>
</g>
<defs>
<clipPath id="clip0_116_382">
<rect width="35" height="35" fill="white" transform="translate(0.5)"/>
</clipPath>
</defs>
</svg>
