<svg width="42" height="41" viewBox="0 0 42 41" fill="none" xmlns="http://www.w3.org/2000/svg">
<path d="M21 0C32.6025 0 42 9.3975 42 21C41.9989 25.4 40.6179 29.6889 38.0516 33.263C35.4852 36.8371 31.8626 39.5164 27.6938 40.9237C26.6438 41.1337 26.25 40.4775 26.25 39.9262C26.25 39.2175 26.2763 36.96 26.2763 34.1512C26.2763 32.1825 25.62 30.9225 24.8588 30.2662C29.5313 29.7412 34.44 27.9562 34.44 19.8975C34.44 17.5875 33.6263 15.7237 32.2875 14.2537C32.4975 13.7287 33.2325 11.5762 32.0775 8.68875C32.0775 8.68875 30.3188 8.11125 26.3025 10.8412C24.6225 10.3687 22.8375 10.1325 21.0525 10.1325C19.2675 10.1325 17.4825 10.3687 15.8025 10.8412C11.7863 8.1375 10.0275 8.68875 10.0275 8.68875C8.8725 11.5762 9.6075 13.7287 9.8175 14.2537C8.47875 15.7237 7.665 17.6137 7.665 19.8975C7.665 27.93 12.5475 29.7412 17.22 30.2662C16.6163 30.7912 16.065 31.71 15.8813 33.075C14.6738 33.6262 11.655 34.5187 9.765 31.3425C9.37125 30.7125 8.19 29.1637 6.53625 29.19C4.7775 29.2162 5.8275 30.1875 6.5625 30.5812C7.455 31.08 8.47875 32.9437 8.715 33.5475C9.135 34.7287 10.5 36.9862 15.7763 36.015C15.7763 37.7737 15.8025 39.4275 15.8025 39.9262C15.8025 40.4775 15.4088 41.1075 14.3588 40.9237C10.1762 39.5315 6.53818 36.8577 3.96084 33.2814C1.3835 29.7052 -0.00231126 25.4082 2.89357e-06 21C2.89357e-06 9.3975 9.3975 0 21 0Z" fill="white"/>
</svg>
