<svg width="25" height="24" viewBox="0 0 25 24" fill="none" xmlns="http://www.w3.org/2000/svg">
<g clip-path="url(#clip0_347_1232)">
<path d="M21.7073 0H3.4216C1.84445 0 0.564453 1.28 0.564453 2.85714V21.1429C0.564453 22.72 1.84445 24 3.4216 24H21.7073C23.2845 24 24.5645 22.72 24.5645 21.1429V2.85714C24.5645 1.28 23.2845 0 21.7073 0ZM7.99302 9.14286V20H4.56445V9.14286H7.99302ZM4.56445 5.98286C4.56445 5.18286 5.25017 4.57143 6.27874 4.57143C7.30731 4.57143 7.95302 5.18286 7.99302 5.98286C7.99302 6.78286 7.35302 7.42857 6.27874 7.42857C5.25017 7.42857 4.56445 6.78286 4.56445 5.98286ZM20.5645 20H17.1359C17.1359 20 17.1359 14.7086 17.1359 14.2857C17.1359 13.1429 16.5645 12 15.1359 11.9771H15.0902C13.7073 11.9771 13.1359 13.1543 13.1359 14.2857C13.1359 14.8057 13.1359 20 13.1359 20H9.70731V9.14286H13.1359V10.6057C13.1359 10.6057 14.2387 9.14286 16.4559 9.14286C18.7245 9.14286 20.5645 10.7029 20.5645 13.8629V20Z" fill="#FFB969"/>
</g>
<defs>
<clipPath id="clip0_347_1232">
<rect width="24" height="24" fill="white" transform="translate(0.564453)"/>
</clipPath>
</defs>
</svg>
