<svg xmlns="http://www.w3.org/2000/svg" xmlns:xlink="http://www.w3.org/1999/xlink" width="826" zoomAndPan="magnify" viewBox="0 0 619.5 711.000001" height="948" preserveAspectRatio="xMidYMid meet" version="1.0"><defs><clipPath id="67fafd29e1"><path d="M 0.183594 161 L 447 161 L 447 564 L 0.183594 564 Z M 0.183594 161 " clip-rule="nonzero"/></clipPath><clipPath id="9b5167e7e5"><path d="M 0.183594 151 L 404 151 L 404 710 L 0.183594 710 Z M 0.183594 151 " clip-rule="nonzero"/></clipPath><clipPath id="a46e835033"><path d="M 0.183594 0 L 419 0 L 419 570 L 0.183594 570 Z M 0.183594 0 " clip-rule="nonzero"/></clipPath><clipPath id="60471bcd17"><path d="M 0.183594 430 L 488 430 L 488 710 L 0.183594 710 Z M 0.183594 430 " clip-rule="nonzero"/></clipPath><clipPath id="c733baa97d"><path d="M 0.183594 94 L 452 94 L 452 546 L 0.183594 546 Z M 0.183594 94 " clip-rule="nonzero"/></clipPath><clipPath id="1afa214258"><path d="M 0.183594 0 L 509 0 L 509 498 L 0.183594 498 Z M 0.183594 0 " clip-rule="nonzero"/></clipPath><clipPath id="a02fdfdded"><path d="M 122 404 L 611 404 L 611 710 L 122 710 Z M 122 404 " clip-rule="nonzero"/></clipPath><clipPath id="d628d1e4e8"><path d="M 0.183594 236 L 521 236 L 521 710 L 0.183594 710 Z M 0.183594 236 " clip-rule="nonzero"/></clipPath><clipPath id="f875680398"><path d="M 0.183594 199 L 429 199 L 429 655 L 0.183594 655 Z M 0.183594 199 " clip-rule="nonzero"/></clipPath><clipPath id="97260bf27c"><path d="M 34 174 L 597 174 L 597 710 L 34 710 Z M 34 174 " clip-rule="nonzero"/></clipPath><clipPath id="cdbf7b53ae"><path d="M 145 164 L 618.816406 164 L 618.816406 564 L 145 564 Z M 145 164 " clip-rule="nonzero"/></clipPath><clipPath id="323b842617"><path d="M 199 0 L 618.816406 0 L 618.816406 556 L 199 556 Z M 199 0 " clip-rule="nonzero"/></clipPath><clipPath id="57055dff59"><path d="M 206 173 L 618.816406 173 L 618.816406 710 L 206 710 Z M 206 173 " clip-rule="nonzero"/></clipPath><clipPath id="b02e74e7dd"><path d="M 188 0 L 618.816406 0 L 618.816406 324 L 188 324 Z M 188 0 " clip-rule="nonzero"/></clipPath><clipPath id="9f38b62372"><path d="M 265 0 L 618.816406 0 L 618.816406 486 L 265 486 Z M 265 0 " clip-rule="nonzero"/></clipPath><clipPath id="7b8dc6d16d"><path d="M 322 66 L 618.816406 66 L 618.816406 554 L 322 554 Z M 322 66 " clip-rule="nonzero"/></clipPath><clipPath id="fbd901f638"><path d="M 271 246 L 618.816406 246 L 618.816406 710 L 271 710 Z M 271 246 " clip-rule="nonzero"/></clipPath><clipPath id="5bf9da8930"><path d="M 323 176 L 618.816406 176 L 618.816406 666 L 323 666 Z M 323 176 " clip-rule="nonzero"/></clipPath><clipPath id="dda43b60f4"><path d="M 207 411 L 618.816406 411 L 618.816406 710 L 207 710 Z M 207 411 " clip-rule="nonzero"/></clipPath><clipPath id="dd753670d9"><path d="M 440 3 L 498 3 L 498 50 L 440 50 Z M 440 3 " clip-rule="nonzero"/></clipPath><clipPath id="f8e44046c7"><path d="M 445.5 0 L 502.300781 6.683594 L 497.289062 49.292969 L 440.484375 42.609375 Z M 445.5 0 " clip-rule="nonzero"/></clipPath><clipPath id="093d0d41ed"><path d="M 473.902344 3.34375 L 497.289062 49.292969 L 440.484375 42.609375 Z M 473.902344 3.34375 " clip-rule="nonzero"/></clipPath><clipPath id="f0d7e626ee"><path d="M 445 660 L 506 660 L 506 705 L 445 705 Z M 445 660 " clip-rule="nonzero"/></clipPath><clipPath id="00419cbd35"><path d="M 512.101562 699.605469 L 451.410156 709.390625 L 445.160156 670.636719 L 505.851562 660.851562 Z M 512.101562 699.605469 " clip-rule="nonzero"/></clipPath><clipPath id="66d4c18ebd"><path d="M 481.753906 704.5 L 445.160156 670.636719 L 505.851562 660.851562 Z M 481.753906 704.5 " clip-rule="nonzero"/></clipPath></defs><g clip-path="url(#67fafd29e1)"><path stroke-linecap="butt" transform="matrix(0.748872, 0.0105457, -0.0105457, 0.748872, 12.969131, 343.144533)" fill="none" stroke-linejoin="miter" d="M 0.00178371 23.498844 L 313.744328 23.498804 " stroke="#ffb969" stroke-width="47" stroke-opacity="1" stroke-miterlimit="4"/></g><g clip-path="url(#9b5167e7e5)"><path stroke-linecap="butt" transform="matrix(0.412153, 0.62534, -0.62534, 0.412153, 30.070355, 340.524184)" fill="none" stroke-linejoin="miter" d="M 0.00138508 23.500684 L 458.9387 23.501081 " stroke="#ffb969" stroke-width="47" stroke-opacity="1" stroke-miterlimit="4"/></g><g clip-path="url(#a46e835033)"><path stroke-linecap="butt" transform="matrix(0.44762, -0.600464, 0.600464, 0.44762, 0.184508, 359.615652)" fill="none" stroke-linejoin="miter" d="M 0.00320925 23.500035 L 457.195199 23.500244 " stroke="#ffb969" stroke-width="47" stroke-opacity="1" stroke-miterlimit="4"/></g><path stroke-linecap="butt" transform="matrix(-0.748937, -0.00382805, 0.00382805, -0.748937, 288.127303, 120.730447)" fill="none" stroke-linejoin="miter" d="M -0.00197623 23.502046 L 110.675738 23.499636 " stroke="#ffb969" stroke-width="47" stroke-opacity="1" stroke-miterlimit="4"/><g clip-path="url(#60471bcd17)"><path stroke-linecap="butt" transform="matrix(-0.748918, -0.00651821, 0.00651821, -0.748918, 288.147988, 647.750704)" fill="none" stroke-linejoin="miter" d="M 0.000499781 23.498369 L 129.995292 23.498799 " stroke="#ffb969" stroke-width="47" stroke-opacity="1" stroke-miterlimit="4"/></g><path stroke-linecap="butt" transform="matrix(0.626711, 0.410066, -0.410066, 0.626711, 304.198441, 34.280622)" fill="none" stroke-linejoin="miter" d="M 0.000314722 23.49897 L 165.043384 23.500676 " stroke="#ffb969" stroke-width="47" stroke-opacity="1" stroke-miterlimit="4"/><path stroke-linecap="butt" transform="matrix(-0.40986, 0.626846, -0.626846, -0.40986, 408.240883, 119.987424)" fill="none" stroke-linejoin="miter" d="M -0.00152496 23.498263 L 390.202823 23.499064 " stroke="#ffb969" stroke-width="47" stroke-opacity="1" stroke-miterlimit="4"/><g clip-path="url(#c733baa97d)"><path stroke-linecap="butt" transform="matrix(0.629997, 0.405, -0.405, 0.629997, 179.066607, 278.395495)" fill="none" stroke-linejoin="miter" d="M 0.00102118 23.497441 L 131.035881 23.499287 " stroke="#ffb969" stroke-width="47" stroke-opacity="1" stroke-miterlimit="4"/></g><g clip-path="url(#1afa214258)"><path stroke-linecap="butt" transform="matrix(-0.42276, 0.618219, -0.618219, -0.42276, 323.556194, 68.893422)" fill="none" stroke-linejoin="miter" d="M -0.00115494 23.501924 L 386.951069 23.498619 " stroke="#ffb969" stroke-width="47" stroke-opacity="1" stroke-miterlimit="4"/></g><g clip-path="url(#a02fdfdded)"><path stroke-linecap="butt" transform="matrix(-0.60589, 0.440248, -0.440248, -0.60589, 421.838853, 617.65791)" fill="none" stroke-linejoin="miter" d="M -0.000303748 23.502305 L 148.570095 23.49852 " stroke="#ffb969" stroke-width="47" stroke-opacity="1" stroke-miterlimit="4"/></g><g clip-path="url(#d628d1e4e8)"><path stroke-linecap="butt" transform="matrix(-0.422321, -0.618519, 0.618519, -0.422321, 307.287641, 699.091988)" fill="none" stroke-linejoin="miter" d="M -0.00161455 23.501124 L 410.176398 23.501485 " stroke="#ffb969" stroke-width="47" stroke-opacity="1" stroke-miterlimit="4"/></g><g clip-path="url(#f875680398)"><path stroke-linecap="butt" transform="matrix(-0.606182, 0.439846, -0.439846, -0.606182, 239.729336, 412.486182)" fill="none" stroke-linejoin="miter" d="M -0.000681292 23.49738 L 131.035183 23.501878 " stroke="#ffb969" stroke-width="47" stroke-opacity="1" stroke-miterlimit="4"/></g><g clip-path="url(#97260bf27c)"><path stroke-linecap="butt" transform="matrix(-0.422421, -0.618451, 0.618451, -0.422421, 382.428545, 623.211882)" fill="none" stroke-linejoin="miter" d="M 0.00071493 23.498548 L 386.954886 23.499509 " stroke="#ffb969" stroke-width="47" stroke-opacity="1" stroke-miterlimit="4"/></g><g clip-path="url(#cdbf7b53ae)"><path stroke-linecap="butt" transform="matrix(0.748943, 0.00224046, -0.00224046, 0.748943, 344.249821, 345.722839)" fill="none" stroke-linejoin="miter" d="M -0.00247582 23.501629 L 255.77458 23.497963 " stroke="#ffb969" stroke-width="47" stroke-opacity="1" stroke-miterlimit="4"/></g><path stroke-linecap="butt" transform="matrix(0.388952, 0.640029, -0.640029, 0.388952, 318.298853, 253.724755)" fill="none" stroke-linejoin="miter" d="M -0.00235052 23.499125 L 156.964954 23.502183 " stroke="#ffb969" stroke-width="47" stroke-opacity="1" stroke-miterlimit="4"/><path stroke-linecap="butt" transform="matrix(0.447589, -0.600487, 0.600487, 0.447589, 284.545056, 439.974104)" fill="none" stroke-linejoin="miter" d="M 0.0000803195 23.499516 L 156.961853 23.498676 " stroke="#ffb969" stroke-width="47" stroke-opacity="1" stroke-miterlimit="4"/><g clip-path="url(#323b842617)"><path stroke-linecap="butt" transform="matrix(0.358655, 0.657486, -0.657486, 0.358655, 413.88909, 97.174971)" fill="none" stroke-linejoin="miter" d="M -0.00253995 23.499639 L 381.303615 23.498904 " stroke="#ffb969" stroke-width="47" stroke-opacity="1" stroke-miterlimit="4"/></g><g clip-path="url(#57055dff59)"><path stroke-linecap="butt" transform="matrix(-0.358732, 0.657444, -0.657444, -0.358732, 551.00017, 380.760874)" fill="none" stroke-linejoin="miter" d="M 0.00125251 23.498496 L 363.10829 23.497956 " stroke="#ffb969" stroke-width="47" stroke-opacity="1" stroke-miterlimit="4"/></g><g clip-path="url(#b02e74e7dd)"><path stroke-linecap="butt" transform="matrix(0.50663, -0.551586, 0.551586, 0.50663, 374.445594, 112.669607)" fill="none" stroke-linejoin="miter" d="M -0.000270133 23.497337 L 180.318669 23.498122 " stroke="#ffb969" stroke-width="47" stroke-opacity="1" stroke-miterlimit="4"/></g><g clip-path="url(#9f38b62372)"><path stroke-linecap="butt" transform="matrix(0.348456, 0.662947, -0.662947, 0.348456, 480.109966, 15.424826)" fill="none" stroke-linejoin="miter" d="M 0.0000326993 23.499188 L 396.170285 23.500763 " stroke="#ffb969" stroke-width="47" stroke-opacity="1" stroke-miterlimit="4"/></g><g clip-path="url(#7b8dc6d16d)"><path stroke-linecap="butt" transform="matrix(0.514291, -0.54445, 0.54445, 0.514291, 509.150305, 341.79207)" fill="none" stroke-linejoin="miter" d="M -0.000589333 23.501335 L 161.929001 23.498545 " stroke="#ffb969" stroke-width="47" stroke-opacity="1" stroke-miterlimit="4"/></g><g clip-path="url(#fbd901f638)"><path stroke-linecap="butt" transform="matrix(-0.357792, 0.657956, -0.657956, -0.357792, 618.17071, 453.921287)" fill="none" stroke-linejoin="miter" d="M -0.000618515 23.502943 L 369.051282 23.501737 " stroke="#ffb969" stroke-width="47" stroke-opacity="1" stroke-miterlimit="4"/></g><g clip-path="url(#5bf9da8930)"><path stroke-linecap="butt" transform="matrix(-0.504311, -0.553707, 0.553707, -0.504311, 592.089993, 477.936206)" fill="none" stroke-linejoin="miter" d="M -0.000530548 23.498527 L 163.095658 23.500653 " stroke="#ffb969" stroke-width="47" stroke-opacity="1" stroke-miterlimit="4"/></g><g clip-path="url(#dda43b60f4)"><path stroke-linecap="butt" transform="matrix(-0.549204, -0.509211, 0.509211, -0.549204, 475.260028, 698.486624)" fill="none" stroke-linejoin="miter" d="M -0.00163142 23.498401 L 147.181752 23.501775 " stroke="#ffb969" stroke-width="47" stroke-opacity="1" stroke-miterlimit="4"/></g><g clip-path="url(#dd753670d9)"><g clip-path="url(#f8e44046c7)"><g clip-path="url(#093d0d41ed)"><path fill="#ffb969" d="M 445.5 0 L 502.300781 6.683594 L 497.289062 49.292969 L 440.484375 42.609375 Z M 445.5 0 " fill-opacity="1" fill-rule="nonzero"/></g></g></g><g clip-path="url(#f0d7e626ee)"><g clip-path="url(#00419cbd35)"><g clip-path="url(#66d4c18ebd)"><path fill="#ffb969" d="M 512.101562 699.605469 L 451.410156 709.390625 L 445.160156 670.636719 L 505.851562 660.851562 Z M 512.101562 699.605469 " fill-opacity="1" fill-rule="nonzero"/></g></g></g></svg>