<svg width="555" height="556" viewBox="0 0 555 556" fill="none" xmlns="http://www.w3.org/2000/svg">
<g clip-path="url(#clip0_347_1262)">
<path d="M3.46875 536.318C12.5348 536.318 27.4084 538.486 46.9858 536.318C66.5632 534.15 76.4176 525.333 97.4403 525.911C118.463 526.49 126.872 538.515 147.895 539.093C168.918 539.671 177.327 527.964 198.349 528.686C219.372 529.409 227.781 541.983 248.804 542.561C269.827 543.14 278.236 530.883 299.259 531.461C320.281 532.04 328.69 544.614 349.713 545.336C370.736 546.059 379.145 534.352 400.168 534.93C421.19 535.508 429.599 547.533 450.622 548.111C471.645 548.69 480.054 537.127 501.077 537.705C522.099 538.283 541.02 548.14 551.531 550.886" stroke="url(#paint0_linear_347_1262)" stroke-width="4.5" stroke-linecap="round"/>
<path d="M3.46875 501.63C12.5348 501.63 27.4084 503.798 46.9858 501.63C66.5632 499.462 76.4176 490.646 97.4403 491.224C118.463 491.802 126.872 503.827 147.895 504.405C168.918 504.983 177.327 493.276 198.349 493.999C219.372 494.722 227.781 507.296 248.804 507.874C269.827 508.452 278.236 496.196 299.259 496.774C320.281 497.352 328.69 509.926 349.713 510.649C370.736 511.372 379.145 499.665 400.168 500.243C421.19 500.821 429.599 512.846 450.622 513.424C471.645 514.002 480.054 502.44 501.077 503.018C522.099 503.596 541.02 513.453 551.531 516.199" stroke="url(#paint1_linear_347_1262)" stroke-width="4.5" stroke-linecap="round"/>
<path d="M3.46875 466.943C12.5348 466.943 27.4084 469.111 46.9858 466.943C66.5632 464.775 76.4176 455.958 97.4403 456.536C118.463 457.115 126.872 469.14 147.895 469.718C168.918 470.296 177.327 458.589 198.349 459.311C219.372 460.034 227.781 472.608 248.804 473.186C269.827 473.765 278.236 461.508 299.259 462.086C320.281 462.665 328.69 475.239 349.713 475.961C370.736 476.684 379.145 464.977 400.168 465.555C421.19 466.133 429.599 478.158 450.622 478.736C471.645 479.315 480.054 467.752 501.077 468.33C522.099 468.908 541.02 478.765 551.531 481.511" stroke="url(#paint2_linear_347_1262)" stroke-width="4.5" stroke-linecap="round"/>
<path d="M3.46875 432.255C12.5348 432.255 27.4084 434.423 46.9858 432.255C66.5632 430.087 76.4176 421.271 97.4403 421.849C118.463 422.427 126.872 434.452 147.895 435.03C168.918 435.608 177.327 423.901 198.349 424.624C219.372 425.347 227.781 437.921 248.804 438.499C269.827 439.077 278.236 426.821 299.259 427.399C320.281 427.977 328.69 440.551 349.713 441.274C370.736 441.997 379.145 430.29 400.168 430.868C421.19 431.446 429.599 443.471 450.622 444.049C471.645 444.627 480.054 433.065 501.077 433.643C522.099 434.221 541.02 444.078 551.531 446.824" stroke="url(#paint3_linear_347_1262)" stroke-width="4.5" stroke-linecap="round"/>
<path d="M3.46875 397.568C12.5348 397.568 27.4084 399.736 46.9858 397.568C66.5632 395.4 76.4176 386.583 97.4403 387.161C118.463 387.74 126.872 399.765 147.895 400.343C168.918 400.921 177.327 389.214 198.349 389.936C219.372 390.659 227.781 403.233 248.804 403.811C269.827 404.39 278.236 392.133 299.259 392.711C320.281 393.29 328.69 405.864 349.713 406.586C370.736 407.309 379.145 395.602 400.168 396.18C421.19 396.758 429.599 408.783 450.622 409.361C471.645 409.94 480.054 398.377 501.077 398.955C522.099 399.533 541.02 409.39 551.531 412.136" stroke="url(#paint4_linear_347_1262)" stroke-width="4.5" stroke-linecap="round"/>
<path d="M3.46875 362.88C12.5348 362.88 27.4084 365.048 46.9858 362.88C66.5632 360.712 76.4176 351.896 97.4403 352.474C118.463 353.052 126.872 365.077 147.895 365.655C168.918 366.233 177.327 354.526 198.349 355.249C219.372 355.972 227.781 368.546 248.804 369.124C269.827 369.702 278.236 357.446 299.259 358.024C320.281 358.602 328.69 371.176 349.713 371.899C370.736 372.622 379.145 360.915 400.168 361.493C421.19 362.071 429.599 374.096 450.622 374.674C471.645 375.252 480.054 363.69 501.077 364.268C522.099 364.846 541.02 374.703 551.531 377.449" stroke="url(#paint5_linear_347_1262)" stroke-width="4.5" stroke-linecap="round"/>
<path d="M3.46875 328.193C12.5348 328.193 27.4084 330.361 46.9858 328.193C66.5632 326.025 76.4176 317.208 97.4403 317.786C118.463 318.365 126.872 330.39 147.895 330.968C168.918 331.546 177.327 319.839 198.349 320.561C219.372 321.284 227.781 333.858 248.804 334.436C269.827 335.015 278.236 322.758 299.259 323.336C320.281 323.915 328.69 336.489 349.713 337.211C370.736 337.934 379.145 326.227 400.168 326.805C421.19 327.383 429.599 339.408 450.622 339.986C471.645 340.565 480.054 329.002 501.077 329.58C522.099 330.158 541.02 340.015 551.531 342.761" stroke="url(#paint6_linear_347_1262)" stroke-width="4.5" stroke-linecap="round"/>
<path d="M3.46875 293.505C12.5348 293.505 27.4084 295.673 46.9858 293.505C66.5632 291.337 76.4176 282.521 97.4403 283.099C118.463 283.677 126.872 295.702 147.895 296.28C168.918 296.858 177.327 285.151 198.349 285.874C219.372 286.597 227.781 299.171 248.804 299.749C269.827 300.327 278.236 288.071 299.259 288.649C320.281 289.227 328.69 301.801 349.713 302.524C370.736 303.247 379.145 291.54 400.168 292.118C421.19 292.696 429.599 304.721 450.622 305.299C471.645 305.877 480.054 294.315 501.077 294.893C522.099 295.471 541.02 305.328 551.531 308.074" stroke="url(#paint7_linear_347_1262)" stroke-width="4.5" stroke-linecap="round"/>
<path d="M3.46875 258.818C12.5348 258.818 27.4084 260.986 46.9858 258.818C66.5632 256.65 76.4176 247.833 97.4403 248.411C118.463 248.99 126.872 261.015 147.895 261.593C168.918 262.171 177.327 250.464 198.349 251.186C219.372 251.909 227.781 264.483 248.804 265.061C269.827 265.64 278.236 253.383 299.259 253.961C320.281 254.54 328.69 267.114 349.713 267.836C370.736 268.559 379.145 256.852 400.168 257.43C421.19 258.008 429.599 270.033 450.622 270.611C471.645 271.19 480.054 259.627 501.077 260.205C522.099 260.783 541.02 270.64 551.531 273.386" stroke="url(#paint8_linear_347_1262)" stroke-width="4.5" stroke-linecap="round"/>
<path d="M3.46875 224.13C12.5348 224.13 27.4084 226.298 46.9858 224.13C66.5632 221.962 76.4176 213.146 97.4403 213.724C118.463 214.302 126.872 226.327 147.895 226.905C168.918 227.483 177.327 215.776 198.349 216.499C219.372 217.222 227.781 229.796 248.804 230.374C269.827 230.952 278.236 218.696 299.259 219.274C320.281 219.852 328.69 232.426 349.713 233.149C370.736 233.872 379.145 222.165 400.168 222.743C421.19 223.321 429.599 235.346 450.622 235.924C471.645 236.502 480.054 224.94 501.077 225.518C522.099 226.096 541.02 235.953 551.531 238.699" stroke="url(#paint9_linear_347_1262)" stroke-width="4.5" stroke-linecap="round"/>
<path d="M3.46875 189.443C12.5348 189.443 27.4084 191.611 46.9858 189.443C66.5632 187.275 76.4176 178.458 97.4403 179.036C118.463 179.615 126.872 191.64 147.895 192.218C168.918 192.796 177.327 181.089 198.349 181.811C219.372 182.534 227.781 195.108 248.804 195.686C269.827 196.265 278.236 184.008 299.259 184.586C320.281 185.165 328.69 197.739 349.713 198.461C370.736 199.184 379.145 187.477 400.168 188.055C421.19 188.633 429.599 200.658 450.622 201.236C471.645 201.815 480.054 190.252 501.077 190.83C522.099 191.408 541.02 201.265 551.531 204.011" stroke="url(#paint10_linear_347_1262)" stroke-width="4.5" stroke-linecap="round"/>
<path d="M3.46875 154.755C12.5348 154.755 27.4084 156.923 46.9858 154.755C66.5632 152.587 76.4176 143.771 97.4403 144.349C118.463 144.927 126.872 156.952 147.895 157.53C168.918 158.108 177.327 146.401 198.349 147.124C219.372 147.847 227.781 160.421 248.804 160.999C269.827 161.577 278.236 149.321 299.259 149.899C320.281 150.477 328.69 163.051 349.713 163.774C370.736 164.497 379.145 152.79 400.168 153.368C421.19 153.946 429.599 165.971 450.622 166.549C471.645 167.127 480.054 155.565 501.077 156.143C522.099 156.721 541.02 166.578 551.531 169.324" stroke="url(#paint11_linear_347_1262)" stroke-width="4.5" stroke-linecap="round"/>
<path d="M3.46875 120.068C12.5348 120.068 27.4084 122.236 46.9858 120.068C66.5632 117.9 76.4176 109.083 97.4403 109.661C118.463 110.24 126.872 122.265 147.895 122.843C168.918 123.421 177.327 111.714 198.349 112.436C219.372 113.159 227.781 125.733 248.804 126.311C269.827 126.89 278.236 114.633 299.259 115.211C320.281 115.79 328.69 128.364 349.713 129.086C370.736 129.809 379.145 118.102 400.168 118.68C421.19 119.258 429.599 131.283 450.622 131.861C471.645 132.44 480.054 120.877 501.077 121.455C522.099 122.033 541.02 131.89 551.531 134.636" stroke="url(#paint12_linear_347_1262)" stroke-width="4.5" stroke-linecap="round"/>
<path d="M3.46875 85.3802C12.5348 85.3802 27.4084 87.5482 46.9858 85.3802C66.5632 83.2122 76.4176 74.3958 97.4403 74.9739C118.463 75.5521 126.872 87.5771 147.895 88.1552C168.918 88.7333 177.327 77.0263 198.349 77.7489C219.372 78.4716 227.781 91.0458 248.804 91.6239C269.827 92.2021 278.236 79.9458 299.259 80.5239C320.281 81.1021 328.69 93.6763 349.713 94.3989C370.736 95.1216 379.145 83.4146 400.168 83.9927C421.19 84.5708 429.599 96.5958 450.622 97.1739C471.645 97.7521 480.054 86.1896 501.077 86.7677C522.099 87.3458 541.02 97.2029 551.531 99.9489" stroke="url(#paint13_linear_347_1262)" stroke-width="4.5" stroke-linecap="round"/>
<path d="M3.46875 50.6927C12.5348 50.6927 27.4084 52.8607 46.9858 50.6927C66.5632 48.5247 76.4176 39.7083 97.4403 40.2864C118.463 40.8646 126.872 52.8896 147.895 53.4677C168.918 54.0458 177.327 42.3388 198.349 43.0614C219.372 43.7841 227.781 56.3583 248.804 56.9364C269.827 57.5146 278.236 45.2583 299.259 45.8364C320.281 46.4146 328.69 58.9888 349.713 59.7114C370.736 60.4341 379.145 48.7271 400.168 49.3052C421.19 49.8833 429.599 61.9083 450.622 62.4864C471.645 63.0646 480.054 51.5021 501.077 52.0802C522.099 52.6583 541.02 62.5154 551.531 65.2614" stroke="url(#paint14_linear_347_1262)" stroke-width="4.5" stroke-linecap="round"/>
<path d="M3.46875 16.0053C12.5348 16.0053 27.4084 18.1733 46.9858 16.0053C66.5632 13.8374 76.4176 5.02094 97.4403 5.59907C118.463 6.17719 126.872 18.2022 147.895 18.7803C168.918 19.3584 177.327 7.65141 198.349 8.37407C219.372 9.09673 227.781 21.6709 248.804 22.2491C269.827 22.8272 278.236 10.5709 299.259 11.1491C320.281 11.7272 328.69 24.3014 349.713 25.0241C370.736 25.7467 379.145 14.0397 400.168 14.6178C421.19 15.1959 429.599 27.2209 450.622 27.7991C471.645 28.3772 480.054 16.8147 501.077 17.3928C522.099 17.9709 541.02 27.828 551.531 30.5741" stroke="url(#paint15_linear_347_1262)" stroke-width="4.5" stroke-linecap="round"/>
</g>
<defs>
<linearGradient id="paint0_linear_347_1262" x1="-6.96467" y1="-26880.7" x2="2493.25" y2="-26880.7" gradientUnits="userSpaceOnUse">
<stop stop-color="#FFB969"/>
<stop offset="1" stop-color="#FFB969"/>
</linearGradient>
<linearGradient id="paint1_linear_347_1262" x1="-6.96467" y1="-26915.4" x2="2493.25" y2="-26915.4" gradientUnits="userSpaceOnUse">
<stop stop-color="#FFB969"/>
<stop offset="1" stop-color="#FFB969"/>
</linearGradient>
<linearGradient id="paint2_linear_347_1262" x1="-6.96467" y1="-26950.1" x2="2493.25" y2="-26950.1" gradientUnits="userSpaceOnUse">
<stop stop-color="#FFB969"/>
<stop offset="1" stop-color="#FFB969"/>
</linearGradient>
<linearGradient id="paint3_linear_347_1262" x1="-6.96467" y1="-26984.7" x2="2493.25" y2="-26984.7" gradientUnits="userSpaceOnUse">
<stop stop-color="#FFB969"/>
<stop offset="1" stop-color="#FFB969"/>
</linearGradient>
<linearGradient id="paint4_linear_347_1262" x1="-6.96467" y1="-27019.4" x2="2493.25" y2="-27019.4" gradientUnits="userSpaceOnUse">
<stop stop-color="#FFB969"/>
<stop offset="1" stop-color="#FFB969"/>
</linearGradient>
<linearGradient id="paint5_linear_347_1262" x1="-6.96467" y1="-27054.1" x2="2493.25" y2="-27054.1" gradientUnits="userSpaceOnUse">
<stop stop-color="#FFB969"/>
<stop offset="1" stop-color="#FFB969"/>
</linearGradient>
<linearGradient id="paint6_linear_347_1262" x1="-6.96467" y1="-27088.8" x2="2493.25" y2="-27088.8" gradientUnits="userSpaceOnUse">
<stop stop-color="#FFB969"/>
<stop offset="1" stop-color="#FFB969"/>
</linearGradient>
<linearGradient id="paint7_linear_347_1262" x1="-6.96467" y1="-27123.5" x2="2493.25" y2="-27123.5" gradientUnits="userSpaceOnUse">
<stop stop-color="#FFB969"/>
<stop offset="1" stop-color="#FFB969"/>
</linearGradient>
<linearGradient id="paint8_linear_347_1262" x1="-6.96467" y1="-27158.2" x2="2493.25" y2="-27158.2" gradientUnits="userSpaceOnUse">
<stop stop-color="#FFB969"/>
<stop offset="1" stop-color="#FFB969"/>
</linearGradient>
<linearGradient id="paint9_linear_347_1262" x1="-6.96467" y1="-27192.9" x2="2493.25" y2="-27192.9" gradientUnits="userSpaceOnUse">
<stop stop-color="#FFB969"/>
<stop offset="1" stop-color="#FFB969"/>
</linearGradient>
<linearGradient id="paint10_linear_347_1262" x1="-6.96467" y1="-27227.6" x2="2493.25" y2="-27227.6" gradientUnits="userSpaceOnUse">
<stop stop-color="#FFB969"/>
<stop offset="1" stop-color="#FFB969"/>
</linearGradient>
<linearGradient id="paint11_linear_347_1262" x1="-6.96467" y1="-27262.2" x2="2493.25" y2="-27262.2" gradientUnits="userSpaceOnUse">
<stop stop-color="#FFB969"/>
<stop offset="1" stop-color="#FFB969"/>
</linearGradient>
<linearGradient id="paint12_linear_347_1262" x1="-6.96467" y1="-27296.9" x2="2493.25" y2="-27296.9" gradientUnits="userSpaceOnUse">
<stop stop-color="#FFB969"/>
<stop offset="1" stop-color="#FFB969"/>
</linearGradient>
<linearGradient id="paint13_linear_347_1262" x1="-6.96467" y1="-27331.6" x2="2493.25" y2="-27331.6" gradientUnits="userSpaceOnUse">
<stop stop-color="#FFB969"/>
<stop offset="1" stop-color="#FFB969"/>
</linearGradient>
<linearGradient id="paint14_linear_347_1262" x1="-6.96467" y1="-27366.3" x2="2493.25" y2="-27366.3" gradientUnits="userSpaceOnUse">
<stop stop-color="#FFB969"/>
<stop offset="1" stop-color="#FFB969"/>
</linearGradient>
<linearGradient id="paint15_linear_347_1262" x1="-6.96467" y1="-27401" x2="2493.25" y2="-27401" gradientUnits="userSpaceOnUse">
<stop stop-color="#FFB969"/>
<stop offset="1" stop-color="#FFB969"/>
</linearGradient>
<clipPath id="clip0_347_1262">
<rect width="555" height="555" fill="white" transform="translate(0 0.729248)"/>
</clipPath>
</defs>
</svg>
